<?xml version="1.0" encoding="UTF-8"?>
<svg version="1.1" xmlns="http://www.w3.org/2000/svg" width="204" height="192">
<path d="M0 0 C67.32 0 134.64 0 204 0 C204 63.36 204 126.72 204 192 C136.68 192 69.36 192 0 192 C0 128.64 0 65.28 0 0 Z " fill="#010101" transform="translate(0,0)"/>
<path d="M0 0 C15.27203613 9.8977301 23.73798205 24.1548912 27.97387695 41.57958984 C30.84561254 56.17042918 27.77175403 71.96933763 20.140625 84.63452148 C9.9372931 99.14788151 -3.81983213 110.99383402 -21.609375 114.69702148 C-33.66044002 115.56173072 -46.62017534 116.28635579 -57.609375 110.69702148 C-58.7540625 110.13756836 -59.89875 109.57811523 -61.078125 109.00170898 C-74.41033856 102.13657398 -85.96510312 90.80770118 -91.609375 76.69702148 C-93.45664125 70.49364366 -94.609375 65.21873799 -94.609375 58.69702148 C-80.419375 58.69702148 -66.229375 58.69702148 -51.609375 58.69702148 C-51.609375 62.65702148 -51.609375 66.61702148 -51.609375 70.69702148 C-39.729375 70.69702148 -27.849375 70.69702148 -15.609375 70.69702148 C-15.939375 58.81702148 -16.269375 46.93702148 -16.609375 34.69702148 C-27.829375 34.69702148 -39.049375 34.69702148 -50.609375 34.69702148 C-50.939375 38.65702148 -51.269375 42.61702148 -51.609375 46.69702148 C-65.799375 46.69702148 -79.989375 46.69702148 -94.609375 46.69702148 C-94.609375 30.08158575 -86.9549777 18.28487905 -75.609375 6.69702148 C-75.09117188 6.14272461 -74.57296875 5.58842773 -74.0390625 5.01733398 C-54.21235986 -14.1865403 -22.31350846 -13.67666137 0 0 Z " fill="#FBFBFB" transform="translate(135.609375,43.302978515625)"/>
</svg>
